<?xml version="1.0" ?><!-- Uploaded to: SVG Repo, www.svgrepo.com, Generator: SVG Repo Mixer Tools -->
<svg fill="#000000" width="800px" height="800px" viewBox="0 0 24 24" id="Main" xmlns="http://www.w3.org/2000/svg"><title/><path d="M22,3a1,1,0,0,0-1-1H3A1,1,0,0,0,3,4V17a1,1,0,0,0,0,2H9.59l-1.3,1.29a1,1,0,0,0,0,1.42,1,1,0,0,0,1.42,0L12,19.41l2.29,2.3a1,1,0,0,0,1.42,0,1,1,0,0,0,0-1.42L14.41,19H21a1,1,0,0,0,0-2V4A1,1,0,0,0,22,3ZM19,17H5V4H19Z"/><path d="M7,12h4a1,1,0,0,0,1-1V7a1,1,0,0,0-1-1H7A1,1,0,0,0,6,7v4A1,1,0,0,0,7,12ZM8,8h2v2H8Z"/><path d="M14,8h3a1,1,0,0,0,0-2H14a1,1,0,0,0,0,2Z"/><path d="M14,12h3a1,1,0,0,0,0-2H14a1,1,0,0,0,0,2Z"/><path d="M7,16H17a1,1,0,0,0,0-2H7a1,1,0,0,0,0,2Z"/></svg>